<svg xmlns="http://www.w3.org/2000/svg" width="279" height="213" viewBox="0 0 279 213" fill="none"><style>.a{fill:#3F3D56;}.b{fill:white;}.c{fill:#CBCBCB;}.d{fill:#4D76B7;}.e{fill:#F1F1F1;}.f{fill:#FFB7B7;}.g{fill:#2F2E41;}</style><g clip-path="url(#clip0)"><path d="M111.6 44.2H110.6V16.2C110.6 14.1 110.2 12 109.4 10 108.6 8 107.4 6.2 105.9 4.7 104.4 3.2 102.6 2 100.7 1.2 98.7 0.4 96.6 0 94.5 0H35.4C31.1 0 27 1.7 24 4.7 21 7.8 19.3 11.9 19.3 16.2V169.7C19.3 171.8 19.7 173.9 20.5 175.9 21.3 177.8 22.5 179.6 24 181.1 25.5 182.6 27.3 183.8 29.2 184.6 31.2 185.5 33.3 185.9 35.4 185.9H94.5C98.8 185.9 102.9 184.2 105.9 181.1 108.9 178.1 110.6 174 110.6 169.7V64.1H111.6V44.2Z" class="a"/><path d="M95.1 4.2H87.4C87.8 5.1 87.9 6 87.8 7 87.7 7.9 87.4 8.8 86.9 9.6 86.4 10.4 85.6 11 84.8 11.5 84 11.9 83.1 12.1 82.1 12.1H48.3C47.3 12.1 46.4 11.9 45.6 11.5 44.8 11 44.1 10.4 43.5 9.6 43 8.8 42.7 7.9 42.6 7 42.5 6 42.6 5.1 43 4.2H35.8C34.2 4.2 32.6 4.5 31.2 5.1 29.7 5.7 28.4 6.6 27.3 7.8 26.1 8.9 25.3 10.2 24.6 11.7 24 13.1 23.7 14.7 23.7 16.3V169.6C23.7 171.2 24 172.7 24.6 174.2 25.3 175.7 26.1 177 27.3 178.1 28.4 179.2 29.7 180.1 31.2 180.7 32.6 181.4 34.2 181.7 35.8 181.7H95.1C96.7 181.7 98.3 181.4 99.7 180.7 101.2 180.1 102.5 179.2 103.7 178.1 104.8 177 105.7 175.7 106.3 174.2 106.9 172.7 107.2 171.2 107.2 169.6V16.3C107.2 14.7 106.9 13.1 106.3 11.7 105.7 10.2 104.8 8.9 103.7 7.8 102.5 6.6 101.2 5.7 99.7 5.1 98.3 4.5 96.7 4.2 95.1 4.2Z" class="b"/><path d="M130.6 185.9H0.3C0.3 185.9 0.2 185.9 0.1 185.8 0 185.7 0 185.7 0 185.6 0 185.5 0 185.4 0.1 185.3 0.2 185.3 0.3 185.2 0.3 185.2H130.6C130.7 185.2 130.8 185.3 130.8 185.3 130.9 185.4 130.9 185.5 130.9 185.6 130.9 185.7 130.9 185.7 130.8 185.8 130.8 185.9 130.7 185.9 130.6 185.9Z" class="c"/><path d="M65.5 118.6C81.4 118.6 94.3 105.6 94.3 89.6 94.3 73.6 81.4 60.6 65.5 60.6 49.5 60.6 36.6 73.6 36.6 89.6 36.6 105.6 49.5 118.6 65.5 118.6Z" class="d"/><path d="M62.6 100.7C61.9 100.7 61.3 100.4 60.8 100.1L60.8 100 54 94.8C53.7 94.6 53.4 94.3 53.2 93.9 53 93.6 52.9 93.2 52.8 92.8 52.8 92.4 52.8 92 52.9 91.6 53 91.3 53.2 90.9 53.4 90.6 53.7 90.3 54 90 54.3 89.8 54.6 89.6 55 89.5 55.4 89.4 55.8 89.4 56.2 89.4 56.6 89.5 57 89.6 57.3 89.8 57.6 90L62 93.4 72.4 79.8C72.7 79.5 73 79.2 73.3 79 73.7 78.8 74 78.7 74.4 78.6 74.8 78.6 75.2 78.6 75.6 78.7 76 78.8 76.3 79 76.7 79.2L76.7 79.2 76.6 79.3 76.7 79.2C77.3 79.7 77.7 80.5 77.8 81.3 77.9 82 77.7 82.9 77.2 83.5L65 99.5C64.7 99.8 64.4 100.1 63.9 100.3 63.5 100.5 63.1 100.6 62.6 100.6L62.6 100.7Z" class="b"/><path d="M237.3 188.8C237.7 188.2 238.1 187.7 238.5 187.2 238.7 187 238.9 186.8 239.1 186.6 240.4 185.5 242 184.7 243.7 184.3 245.3 184 247.1 184.1 248.7 184.7 250.3 185.2 251.7 186.2 252.8 187.5 254 188.8 254.7 190.4 255 192.1 256.4 186.9 252.7 181.7 249.1 177.7 245.4 173.8 241.1 169.5 241.2 164 241.2 161 242.7 158.3 244.9 156.3 244.9 156.3 245 156.2 245.1 156.1 247.8 153.8 251.2 152.6 254.7 152.8 261.3 153.1 267 157.5 271 162.8 277.4 171.2 280.2 183.1 275.7 192.7 271.8 201.2 263.4 206.2 254.8 210.2 253.6 210.8 252.4 211.3 251.2 211.9 251.2 211.9 251.2 211.9 251.2 211.9 251.1 211.9 251.1 211.9 251 212 250.8 212.1 250.5 212.2 250.3 212.3L250.4 212.4 250.8 212.6C250.6 212.5 250.5 212.4 250.4 212.4 250.3 212.3 250.3 212.3 250.3 212.3 246.1 209.8 241.8 207.1 238.9 203.1 235.8 199 234.6 193.1 237.3 188.8Z" class="e"/><path d="M265.4 179.2C266.4 181.3 267 183.6 267.3 185.9 267.5 188 267.4 190 267 192.1 266.2 196.3 264.4 200.2 261.7 203.5 259.7 206 257.4 208.3 254.8 210.2 253.6 210.8 252.4 211.3 251.2 211.9 251.2 211.9 251.2 211.9 251.2 211.9 251.1 211.9 251.1 211.9 251 212 250.8 212.1 250.5 212.2 250.3 212.3L250.4 212.4 250.8 212.6C250.6 212.5 250.5 212.4 250.4 212.4 250.3 212.3 250.3 212.3 250.3 212.3 251.2 209 251.3 205.6 250.7 202.3 250 199 248.6 195.9 246.4 193.2 244.3 190.6 241.6 188.5 238.5 187.2 238.7 187 238.9 186.8 239.1 186.6 240.3 187.1 241.5 187.8 242.5 188.5 246.4 191.2 249.2 195 250.7 199.4 252.1 203.4 252.2 207.7 251.2 211.8 251.4 211.7 251.6 211.6 251.8 211.4 255.8 208.8 259.4 205.6 262.1 201.7 264.5 198.3 266 194.5 266.5 190.5 267 186.1 265.9 181.7 264 177.8 261.8 173.6 259.1 169.7 255.9 166.3 252.6 162.7 249 159.6 245 156.9 244.9 156.8 244.8 156.7 244.8 156.6 244.8 156.5 244.8 156.4 244.9 156.3 244.9 156.2 245 156.2 245.1 156.1 245.1 156.1 245.2 156.1 245.2 156.1 245.3 156.2 245.3 156.2 245.3 156.2 245.8 156.5 246.3 156.9 246.8 157.2 250.8 160.1 254.5 163.4 257.7 167.2 260.8 170.8 263.6 174.8 265.4 179.2Z" class="b"/><path d="M179.5 13.4C182.9 13.4 185.6 10.7 185.6 7.3 185.6 3.9 182.9 1.1 179.5 1.1 176.1 1.1 173.3 3.9 173.3 7.3 173.3 10.7 176.1 13.4 179.5 13.4Z" class="e"/><path d="M255.7 95.8C257.8 95.8 259.4 94.1 259.4 92 259.4 89.9 257.8 88.3 255.7 88.3 253.6 88.3 252 89.9 252 92 252 94.1 253.6 95.8 255.7 95.8Z" class="e"/><path d="M146.3 106.1C148.4 106.1 150.1 104.4 150.1 102.3 150.1 100.2 148.4 98.6 146.3 98.6 144.3 98.6 142.6 100.2 142.6 102.3 142.6 104.4 144.3 106.1 146.3 106.1Z" class="e"/><path d="M148.4 213H278.7C278.7 213 278.8 213 278.9 212.9 279 212.8 279 212.7 279 212.7 279 212.6 279 212.5 278.9 212.4 278.8 212.4 278.7 212.3 278.7 212.3H148.4C148.3 212.3 148.2 212.4 148.2 212.4 148.1 212.5 148.1 212.6 148.1 212.7 148.1 212.7 148.1 212.8 148.2 212.9 148.2 213 148.3 213 148.4 213Z" class="c"/><path d="M264.3 33.1C264.5 31.9 264.2 30.7 263.5 29.7 262.8 28.6 261.8 27.9 260.6 27.6 259.4 27.3 258.2 27.4 257.1 28 256 28.5 255.1 29.5 254.7 30.6L244.1 42.8 247.2 51.4 257.8 37.2C258.5 37.5 259.3 37.5 260 37.4 260.7 37.3 261.4 37.1 262 36.7 262.6 36.3 263.1 35.8 263.5 35.2 263.9 34.6 264.2 33.9 264.3 33.1Z" class="f"/><path d="M220.5 80.4L255.6 42.9 250.8 35.3 206.8 72.7 220.5 80.4Z" class="a"/><path d="M212.7 57.6C219.4 57.6 225 52.1 225 45.3 225 38.5 219.4 32.9 212.7 32.9 205.9 32.9 200.3 38.5 200.3 45.3 200.3 52.1 205.9 57.6 212.7 57.6Z" class="g"/><path d="M213.6 38.3C216.3 35.6 219.5 33.5 223 32.2 225.3 31.4 227.8 30.8 230.1 31.3 232.5 31.8 234.8 33.4 235.4 35.8 236 37.7 235.4 39.8 234.6 41.5 233.7 43.3 232.6 45 231.9 46.9 231.2 48.8 231 50.8 231.3 52.8 231.6 54.8 232.4 56.7 233.6 58.4 234.8 60 236.4 61.3 238.3 62.1 240.1 63 242.1 63.3 244.1 63.2 241.8 63.5 239.6 64.6 237.4 65.2 235.1 65.8 232.4 65.7 230.7 64.1 228.9 62.4 228.9 59.5 229 57.1 229.1 53.3 229.2 49.6 229.3 45.9 229.4 44 229.5 42.1 228.8 40.3 228.1 38.5 226.5 37 224.6 37 223.2 37 221.9 37.9 220.8 38.8 219.6 39.6 218.4 40.5 217 40.7 215.6 40.8 213.9 39.7 214 38.3L213.6 38.3Z" class="g"/><path d="M165.9 128.2C164.7 128.5 163.5 128.4 162.4 127.9 161.3 127.3 160.4 126.4 159.9 125.2 159.5 124.1 159.4 122.8 159.8 121.7 160.3 120.5 161.1 119.5 162.1 119L172.8 106.8 181.8 108.8 169.1 121.2C169.4 121.9 169.6 122.6 169.6 123.3 169.6 124.1 169.4 124.8 169.1 125.5 168.8 126.1 168.4 126.7 167.8 127.2 167.3 127.7 166.6 128 165.9 128.2H165.9Z" class="f"/><path d="M200.9 84.9L174.4 118.2 166.3 114.5 197.5 65.9 200.9 84.9Z" class="a"/><path d="M179.7 185.6L173.4 185.5 174.2 207.1H179.7L179.7 185.6Z" class="f"/><path d="M181.2 205.3L170.2 205.3H170.2C168.4 205.3 166.6 206 165.3 207.4 164 208.7 163.3 210.5 163.3 212.3V212.5L181.2 212.5 181.2 205.3Z" class="g"/><path d="M221.6 179.9L214.7 184.3 228.5 201 233.1 198 221.6 179.9Z" class="f"/><path d="M233.3 195.7L224.1 201.6 224.1 201.6C222.6 202.6 221.5 204.2 221.1 206 220.7 207.8 221 209.7 222 211.3L222.2 211.5 237.2 201.8 233.3 195.7Z" class="g"/><path d="M224 114C224 114 208.7 62.9 203.8 62.2 198.8 61.5 190.9 75.3 190.9 75.3 180.6 88.5 170 131.1 170 131.1 170 131.1 187.7 132.2 200.6 139.2 213.5 146.1 228.8 138.8 228.8 138.8L224 114Z" class="a"/><path d="M224 114C224 114 208.7 62.9 203.8 62.2 198.8 61.5 192.9 75.4 192.9 75.4 187.8 96.7 170 131.1 170 131.1 170 131.1 187.7 132.2 200.6 139.2 213.5 146.1 228.8 138.8 228.8 138.8L224 114Z" style="fill:black;opacity:0.1"/><path d="M211.4 98.7V124.3L214.5 161.5 229.5 189.6 222.3 194.8 201.8 168 193.7 141.5 181 200.3 171.4 199.6 178 118.1 190.6 95.1 211.4 98.7Z" class="g"/><path d="M196 73.8C191.2 78.6 195.6 83.8 195.6 83.8L190.2 96.1 211.7 102 219.2 68.2 214.1 62.7C203.9 62.4 203.8 62.2 203.8 62.2 202.1 63.9 196 73.8 196 73.8Z" class="d"/><path d="M220.1 64.7C219.1 64 218 63.5 216.8 63.2 215.7 62.9 214.4 62.9 213.2 63 212 63.2 210.9 63.7 209.8 64.3 208.8 64.9 207.9 65.8 207.2 66.8 201.8 74.3 196.8 86.5 203.7 101.8 214.7 126.2 224.4 138.8 228.3 138.8 228.5 138.8 228.6 138.7 228.8 138.7 231.2 137.9 234.7 133.8 235.3 130.1 235.6 128.9 235.5 127.1 234 125.8 229.5 122.3 221.6 111.2 219.1 96.7 217.8 88.6 220.4 81.3 222.9 76.6 223.9 74.6 224.2 72.4 223.7 70.2 223.3 68 222 66.1 220.2 64.8L220.1 64.7Z" class="a"/><path d="M213.3 56.4C217.7 54 219.3 48.5 216.9 44.1 214.5 39.7 209 38.1 204.6 40.5 200.2 42.9 198.6 48.4 201 52.8 203.4 57.2 208.9 58.8 213.3 56.4Z" class="f"/><path d="M196.2 47.7H209.3L209.4 45.9 210.1 47.7H212.1L212.4 44 213.7 47.7H217.6V47.6C217.6 45 216.6 42.5 214.7 40.6 212.9 38.8 210.4 37.8 207.8 37.8H206C203.4 37.8 200.9 38.8 199.1 40.6 197.2 42.5 196.2 45 196.2 47.6V47.7Z" class="g"/><path d="M215.6 54.5L221.2 52.7V39.1H210.7L210.9 39.4C214.5 43 218.6 55.9 215.6 54.5Z" class="g"/></g><defs><clipPath><rect width="279" height="213" class="b"/></clipPath></defs></svg>